<svg xmlns="http://www.w3.org/2000/svg" xmlns:xlink="http://www.w3.org/1999/xlink" width="51" height="38" viewBox="0 0 51 38">
    <defs>
        <path id="a" d="M.153.076h10.285v18.702H.153z"/>
    </defs>
    <g fill="none" fill-rule="evenodd">
        <path fill="#FFF" d="M22.583 22.145h-2.375V7.827h-2.477V5.848h7.324v1.979h-2.472zM32.187 22.145v-6.4h-3.102v6.4h-2.34V8.19a2.35 2.35 0 0 1 2.34-2.342h3.135a2.35 2.35 0 0 1 2.342 2.342v13.955h-2.375zm-3.102-8.412h3.102v-5.94h-3.102v5.94zM39.483 22.342A2.35 2.35 0 0 1 37.14 20V8.19a2.35 2.35 0 0 1 2.342-2.342h3.232c1.286 0 2.31 1.055 2.31 2.342v3.431h-2.342V7.793h-3.2v12.603h3.497v-4.75h-1.75V13.6h3.926V20c0 1.287-1.02 2.342-2.307 2.342h-3.366z"/>
        <path fill="#FFF" d="M41.71 37.405l-16.033-9.502H0V.226h50.252v27.677H39.996l1.715 9.502zM1.57 26.333h24.537l13.45 7.969-1.44-7.969h10.565V1.796H1.57v24.537z"/>
        <g transform="translate(4.064 .15)">
            <mask id="b" fill="#fff">
                <use xlink:href="#a"/>
            </mask>
            <path fill="#FFF" d="M10.438 18.778V.076H.153v18.702l5.142-5.195 5.143 5.195zm-1.29-9.542l-2.652.57 1.795 2.053-1.57 1.17-1.397-2.368-1.397 2.368-1.598-1.17 1.77-1.996-2.655-.627.6-1.882 2.454 1.082-.199-2.738h1.994l-.312 2.681L8.52 7.324l.627 1.912z" mask="url(#b)"/>
        </g>
    </g>
</svg>
